<mxfile host="app.diagrams.net" modified="2023-08-25T14:20:49.077Z" agent="Mozilla/5.0 (X11; Linux x86_64; rv:103.0) Gecko/20100101 Firefox/103.0" version="21.6.9" etag="39A0U_mBQiPrOkg6nzwA" type="github">
  <diagram name="PÃ¡gina-1" id="MfnKwwo1QxNO67TRGrfj">
    <mxGraphModel>
      <root>
        <mxCell id="0" />
        <mxCell id="1" parent="0" />
      </root>
    </mxGraphModel>
  </diagram>
</mxfile>
